<?xml version="1.0" encoding="UTF-8" standalone="no"?>
<!DOCTYPE svg PUBLIC "-//W3C//DTD SVG 1.1//EN"
 "http://www.w3.org/Graphics/SVG/1.1/DTD/svg11.dtd">
<!-- Generated by graphviz version 2.40.1 (20161225.0304)
 -->
<!-- Title: G Pages: 1 -->
<svg width="837pt" height="1180pt"
 viewBox="0.00 0.00 628.00 885.00" xmlns="http://www.w3.org/2000/svg" xmlns:xlink="http://www.w3.org/1999/xlink">
<g id="graph0" class="graph" transform="scale(1.3333 1.3333) rotate(0) translate(4 881)">
<title>G</title>
<polygon fill="#ffffff" stroke="transparent" points="-4,4 -4,-881 624,-881 624,4 -4,4"/>
<!-- 140654489235976 -->
<g id="node1" class="node">
<title>140654489235976</title>
<polygon fill="none" stroke="#000000" points="155.5,-830.5 155.5,-876.5 463.5,-876.5 463.5,-830.5 155.5,-830.5"/>
<text text-anchor="middle" x="222" y="-849.8" font-family="Times,serif" font-size="14.00" fill="#000000">input_2: InputLayer</text>
<polyline fill="none" stroke="#000000" points="288.5,-830.5 288.5,-876.5 "/>
<text text-anchor="middle" x="317.5" y="-861.3" font-family="Times,serif" font-size="14.00" fill="#000000">input:</text>
<polyline fill="none" stroke="#000000" points="288.5,-853.5 346.5,-853.5 "/>
<text text-anchor="middle" x="317.5" y="-838.3" font-family="Times,serif" font-size="14.00" fill="#000000">output:</text>
<polyline fill="none" stroke="#000000" points="346.5,-830.5 346.5,-876.5 "/>
<text text-anchor="middle" x="405" y="-861.3" font-family="Times,serif" font-size="14.00" fill="#000000">(None, 28, 28, 1)</text>
<polyline fill="none" stroke="#000000" points="346.5,-853.5 463.5,-853.5 "/>
<text text-anchor="middle" x="405" y="-838.3" font-family="Times,serif" font-size="14.00" fill="#000000">(None, 28, 28, 1)</text>
</g>
<!-- 140654489235752 -->
<g id="node2" class="node">
<title>140654489235752</title>
<polygon fill="none" stroke="#000000" points="151.5,-747.5 151.5,-793.5 467.5,-793.5 467.5,-747.5 151.5,-747.5"/>
<text text-anchor="middle" x="218" y="-766.8" font-family="Times,serif" font-size="14.00" fill="#000000">conv2d_5: Conv2D</text>
<polyline fill="none" stroke="#000000" points="284.5,-747.5 284.5,-793.5 "/>
<text text-anchor="middle" x="313.5" y="-778.3" font-family="Times,serif" font-size="14.00" fill="#000000">input:</text>
<polyline fill="none" stroke="#000000" points="284.5,-770.5 342.5,-770.5 "/>
<text text-anchor="middle" x="313.5" y="-755.3" font-family="Times,serif" font-size="14.00" fill="#000000">output:</text>
<polyline fill="none" stroke="#000000" points="342.5,-747.5 342.5,-793.5 "/>
<text text-anchor="middle" x="405" y="-778.3" font-family="Times,serif" font-size="14.00" fill="#000000">(None, 28, 28, 1)</text>
<polyline fill="none" stroke="#000000" points="342.5,-770.5 467.5,-770.5 "/>
<text text-anchor="middle" x="405" y="-755.3" font-family="Times,serif" font-size="14.00" fill="#000000">(None, 12, 12, 16)</text>
</g>
<!-- 140654489235976&#45;&gt;140654489235752 -->
<g id="edge1" class="edge">
<title>140654489235976&#45;&gt;140654489235752</title>
<path fill="none" stroke="#000000" d="M309.5,-830.3799C309.5,-822.1745 309.5,-812.7679 309.5,-803.8786"/>
<polygon fill="#000000" stroke="#000000" points="313.0001,-803.784 309.5,-793.784 306.0001,-803.784 313.0001,-803.784"/>
</g>
<!-- 140654489235920 -->
<g id="node3" class="node">
<title>140654489235920</title>
<polygon fill="none" stroke="#000000" points="82.5,-664.5 82.5,-710.5 536.5,-710.5 536.5,-664.5 82.5,-664.5"/>
<text text-anchor="middle" x="218" y="-683.8" font-family="Times,serif" font-size="14.00" fill="#000000">batch_normalization_2: BatchNormalization</text>
<polyline fill="none" stroke="#000000" points="353.5,-664.5 353.5,-710.5 "/>
<text text-anchor="middle" x="382.5" y="-695.3" font-family="Times,serif" font-size="14.00" fill="#000000">input:</text>
<polyline fill="none" stroke="#000000" points="353.5,-687.5 411.5,-687.5 "/>
<text text-anchor="middle" x="382.5" y="-672.3" font-family="Times,serif" font-size="14.00" fill="#000000">output:</text>
<polyline fill="none" stroke="#000000" points="411.5,-664.5 411.5,-710.5 "/>
<text text-anchor="middle" x="474" y="-695.3" font-family="Times,serif" font-size="14.00" fill="#000000">(None, 12, 12, 16)</text>
<polyline fill="none" stroke="#000000" points="411.5,-687.5 536.5,-687.5 "/>
<text text-anchor="middle" x="474" y="-672.3" font-family="Times,serif" font-size="14.00" fill="#000000">(None, 12, 12, 16)</text>
</g>
<!-- 140654489235752&#45;&gt;140654489235920 -->
<g id="edge2" class="edge">
<title>140654489235752&#45;&gt;140654489235920</title>
<path fill="none" stroke="#000000" d="M309.5,-747.3799C309.5,-739.1745 309.5,-729.7679 309.5,-720.8786"/>
<polygon fill="#000000" stroke="#000000" points="313.0001,-720.784 309.5,-710.784 306.0001,-720.784 313.0001,-720.784"/>
</g>
<!-- 140654489236648 -->
<g id="node4" class="node">
<title>140654489236648</title>
<polygon fill="none" stroke="#000000" points="141,-581.5 141,-627.5 478,-627.5 478,-581.5 141,-581.5"/>
<text text-anchor="middle" x="218" y="-600.8" font-family="Times,serif" font-size="14.00" fill="#000000">activation_2: Activation</text>
<polyline fill="none" stroke="#000000" points="295,-581.5 295,-627.5 "/>
<text text-anchor="middle" x="324" y="-612.3" font-family="Times,serif" font-size="14.00" fill="#000000">input:</text>
<polyline fill="none" stroke="#000000" points="295,-604.5 353,-604.5 "/>
<text text-anchor="middle" x="324" y="-589.3" font-family="Times,serif" font-size="14.00" fill="#000000">output:</text>
<polyline fill="none" stroke="#000000" points="353,-581.5 353,-627.5 "/>
<text text-anchor="middle" x="415.5" y="-612.3" font-family="Times,serif" font-size="14.00" fill="#000000">(None, 12, 12, 16)</text>
<polyline fill="none" stroke="#000000" points="353,-604.5 478,-604.5 "/>
<text text-anchor="middle" x="415.5" y="-589.3" font-family="Times,serif" font-size="14.00" fill="#000000">(None, 12, 12, 16)</text>
</g>
<!-- 140654489235920&#45;&gt;140654489236648 -->
<g id="edge3" class="edge">
<title>140654489235920&#45;&gt;140654489236648</title>
<path fill="none" stroke="#000000" d="M309.5,-664.3799C309.5,-656.1745 309.5,-646.7679 309.5,-637.8786"/>
<polygon fill="#000000" stroke="#000000" points="313.0001,-637.784 309.5,-627.784 306.0001,-637.784 313.0001,-637.784"/>
</g>
<!-- 140654489235584 -->
<g id="node5" class="node">
<title>140654489235584</title>
<polygon fill="none" stroke="#000000" points="88,-498.5 88,-544.5 531,-544.5 531,-498.5 88,-498.5"/>
<text text-anchor="middle" x="218" y="-517.8" font-family="Times,serif" font-size="14.00" fill="#000000">average_pooling2d_2: AveragePooling2D</text>
<polyline fill="none" stroke="#000000" points="348,-498.5 348,-544.5 "/>
<text text-anchor="middle" x="377" y="-529.3" font-family="Times,serif" font-size="14.00" fill="#000000">input:</text>
<polyline fill="none" stroke="#000000" points="348,-521.5 406,-521.5 "/>
<text text-anchor="middle" x="377" y="-506.3" font-family="Times,serif" font-size="14.00" fill="#000000">output:</text>
<polyline fill="none" stroke="#000000" points="406,-498.5 406,-544.5 "/>
<text text-anchor="middle" x="468.5" y="-529.3" font-family="Times,serif" font-size="14.00" fill="#000000">(None, 12, 12, 16)</text>
<polyline fill="none" stroke="#000000" points="406,-521.5 531,-521.5 "/>
<text text-anchor="middle" x="468.5" y="-506.3" font-family="Times,serif" font-size="14.00" fill="#000000">(None, 6, 6, 16)</text>
</g>
<!-- 140654489236648&#45;&gt;140654489235584 -->
<g id="edge4" class="edge">
<title>140654489236648&#45;&gt;140654489235584</title>
<path fill="none" stroke="#000000" d="M309.5,-581.3799C309.5,-573.1745 309.5,-563.7679 309.5,-554.8786"/>
<polygon fill="#000000" stroke="#000000" points="313.0001,-554.784 309.5,-544.784 306.0001,-554.784 313.0001,-554.784"/>
</g>
<!-- 140654489236816 -->
<g id="node6" class="node">
<title>140654489236816</title>
<polygon fill="none" stroke="#000000" points="0,-415.5 0,-461.5 301,-461.5 301,-415.5 0,-415.5"/>
<text text-anchor="middle" x="66.5" y="-434.8" font-family="Times,serif" font-size="14.00" fill="#000000">conv2d_6: Conv2D</text>
<polyline fill="none" stroke="#000000" points="133,-415.5 133,-461.5 "/>
<text text-anchor="middle" x="162" y="-446.3" font-family="Times,serif" font-size="14.00" fill="#000000">input:</text>
<polyline fill="none" stroke="#000000" points="133,-438.5 191,-438.5 "/>
<text text-anchor="middle" x="162" y="-423.3" font-family="Times,serif" font-size="14.00" fill="#000000">output:</text>
<polyline fill="none" stroke="#000000" points="191,-415.5 191,-461.5 "/>
<text text-anchor="middle" x="246" y="-446.3" font-family="Times,serif" font-size="14.00" fill="#000000">(None, 6, 6, 16)</text>
<polyline fill="none" stroke="#000000" points="191,-438.5 301,-438.5 "/>
<text text-anchor="middle" x="246" y="-423.3" font-family="Times,serif" font-size="14.00" fill="#000000">(None, 6, 6, 32)</text>
</g>
<!-- 140654489235584&#45;&gt;140654489236816 -->
<g id="edge5" class="edge">
<title>140654489235584&#45;&gt;140654489236816</title>
<path fill="none" stroke="#000000" d="M265.2096,-498.3799C246.1651,-488.4384 223.7423,-476.7334 203.797,-466.3217"/>
<polygon fill="#000000" stroke="#000000" points="205.3129,-463.1649 194.8283,-461.6399 202.0735,-469.3703 205.3129,-463.1649"/>
</g>
<!-- 140654489236928 -->
<g id="node7" class="node">
<title>140654489236928</title>
<polygon fill="none" stroke="#000000" points="319,-415.5 319,-461.5 620,-461.5 620,-415.5 319,-415.5"/>
<text text-anchor="middle" x="385.5" y="-434.8" font-family="Times,serif" font-size="14.00" fill="#000000">conv2d_7: Conv2D</text>
<polyline fill="none" stroke="#000000" points="452,-415.5 452,-461.5 "/>
<text text-anchor="middle" x="481" y="-446.3" font-family="Times,serif" font-size="14.00" fill="#000000">input:</text>
<polyline fill="none" stroke="#000000" points="452,-438.5 510,-438.5 "/>
<text text-anchor="middle" x="481" y="-423.3" font-family="Times,serif" font-size="14.00" fill="#000000">output:</text>
<polyline fill="none" stroke="#000000" points="510,-415.5 510,-461.5 "/>
<text text-anchor="middle" x="565" y="-446.3" font-family="Times,serif" font-size="14.00" fill="#000000">(None, 6, 6, 16)</text>
<polyline fill="none" stroke="#000000" points="510,-438.5 620,-438.5 "/>
<text text-anchor="middle" x="565" y="-423.3" font-family="Times,serif" font-size="14.00" fill="#000000">(None, 6, 6, 8)</text>
</g>
<!-- 140654489235584&#45;&gt;140654489236928 -->
<g id="edge6" class="edge">
<title>140654489235584&#45;&gt;140654489236928</title>
<path fill="none" stroke="#000000" d="M354.0689,-498.3799C373.2333,-488.4384 395.7971,-476.7334 415.8678,-466.3217"/>
<polygon fill="#000000" stroke="#000000" points="417.6278,-469.3516 424.8929,-461.6399 414.4045,-463.1379 417.6278,-469.3516"/>
</g>
<!-- 140654489237880 -->
<g id="node8" class="node">
<title>140654489237880</title>
<polygon fill="none" stroke="#000000" points="87,-332.5 87,-378.5 532,-378.5 532,-332.5 87,-332.5"/>
<text text-anchor="middle" x="174.5" y="-351.8" font-family="Times,serif" font-size="14.00" fill="#000000">concatenate_2: Concatenate</text>
<polyline fill="none" stroke="#000000" points="262,-332.5 262,-378.5 "/>
<text text-anchor="middle" x="291" y="-363.3" font-family="Times,serif" font-size="14.00" fill="#000000">input:</text>
<polyline fill="none" stroke="#000000" points="262,-355.5 320,-355.5 "/>
<text text-anchor="middle" x="291" y="-340.3" font-family="Times,serif" font-size="14.00" fill="#000000">output:</text>
<polyline fill="none" stroke="#000000" points="320,-332.5 320,-378.5 "/>
<text text-anchor="middle" x="426" y="-363.3" font-family="Times,serif" font-size="14.00" fill="#000000">[(None, 6, 6, 32), (None, 6, 6, 8)]</text>
<polyline fill="none" stroke="#000000" points="320,-355.5 532,-355.5 "/>
<text text-anchor="middle" x="426" y="-340.3" font-family="Times,serif" font-size="14.00" fill="#000000">(None, 6, 6, 40)</text>
</g>
<!-- 140654489236816&#45;&gt;140654489237880 -->
<g id="edge7" class="edge">
<title>140654489236816&#45;&gt;140654489237880</title>
<path fill="none" stroke="#000000" d="M194.7904,-415.3799C213.8349,-405.4384 236.2577,-393.7334 256.203,-383.3217"/>
<polygon fill="#000000" stroke="#000000" points="257.9265,-386.3703 265.1717,-378.6399 254.6871,-380.1649 257.9265,-386.3703"/>
</g>
<!-- 140654489236928&#45;&gt;140654489237880 -->
<g id="edge8" class="edge">
<title>140654489236928&#45;&gt;140654489237880</title>
<path fill="none" stroke="#000000" d="M424.9311,-415.3799C405.7667,-405.4384 383.2029,-393.7334 363.1322,-383.3217"/>
<polygon fill="#000000" stroke="#000000" points="364.5955,-380.1379 354.1071,-378.6399 361.3722,-386.3516 364.5955,-380.1379"/>
</g>
<!-- 140654489237544 -->
<g id="node9" class="node">
<title>140654489237544</title>
<polygon fill="none" stroke="#000000" points="159,-249.5 159,-295.5 460,-295.5 460,-249.5 159,-249.5"/>
<text text-anchor="middle" x="225.5" y="-268.8" font-family="Times,serif" font-size="14.00" fill="#000000">conv2d_8: Conv2D</text>
<polyline fill="none" stroke="#000000" points="292,-249.5 292,-295.5 "/>
<text text-anchor="middle" x="321" y="-280.3" font-family="Times,serif" font-size="14.00" fill="#000000">input:</text>
<polyline fill="none" stroke="#000000" points="292,-272.5 350,-272.5 "/>
<text text-anchor="middle" x="321" y="-257.3" font-family="Times,serif" font-size="14.00" fill="#000000">output:</text>
<polyline fill="none" stroke="#000000" points="350,-249.5 350,-295.5 "/>
<text text-anchor="middle" x="405" y="-280.3" font-family="Times,serif" font-size="14.00" fill="#000000">(None, 6, 6, 40)</text>
<polyline fill="none" stroke="#000000" points="350,-272.5 460,-272.5 "/>
<text text-anchor="middle" x="405" y="-257.3" font-family="Times,serif" font-size="14.00" fill="#000000">(None, 4, 4, 10)</text>
</g>
<!-- 140654489237880&#45;&gt;140654489237544 -->
<g id="edge9" class="edge">
<title>140654489237880&#45;&gt;140654489237544</title>
<path fill="none" stroke="#000000" d="M309.5,-332.3799C309.5,-324.1745 309.5,-314.7679 309.5,-305.8786"/>
<polygon fill="#000000" stroke="#000000" points="313.0001,-305.784 309.5,-295.784 306.0001,-305.784 313.0001,-305.784"/>
</g>
<!-- 140654489238608 -->
<g id="node10" class="node">
<title>140654489238608</title>
<polygon fill="none" stroke="#000000" points="169,-166.5 169,-212.5 450,-212.5 450,-166.5 169,-166.5"/>
<text text-anchor="middle" x="225.5" y="-185.8" font-family="Times,serif" font-size="14.00" fill="#000000">flatten_2: Flatten</text>
<polyline fill="none" stroke="#000000" points="282,-166.5 282,-212.5 "/>
<text text-anchor="middle" x="311" y="-197.3" font-family="Times,serif" font-size="14.00" fill="#000000">input:</text>
<polyline fill="none" stroke="#000000" points="282,-189.5 340,-189.5 "/>
<text text-anchor="middle" x="311" y="-174.3" font-family="Times,serif" font-size="14.00" fill="#000000">output:</text>
<polyline fill="none" stroke="#000000" points="340,-166.5 340,-212.5 "/>
<text text-anchor="middle" x="395" y="-197.3" font-family="Times,serif" font-size="14.00" fill="#000000">(None, 4, 4, 10)</text>
<polyline fill="none" stroke="#000000" points="340,-189.5 450,-189.5 "/>
<text text-anchor="middle" x="395" y="-174.3" font-family="Times,serif" font-size="14.00" fill="#000000">(None, 160)</text>
</g>
<!-- 140654489237544&#45;&gt;140654489238608 -->
<g id="edge10" class="edge">
<title>140654489237544&#45;&gt;140654489238608</title>
<path fill="none" stroke="#000000" d="M309.5,-249.3799C309.5,-241.1745 309.5,-231.7679 309.5,-222.8786"/>
<polygon fill="#000000" stroke="#000000" points="313.0001,-222.784 309.5,-212.784 306.0001,-222.784 313.0001,-222.784"/>
</g>
<!-- 140654489239112 -->
<g id="node11" class="node">
<title>140654489239112</title>
<polygon fill="none" stroke="#000000" points="170,-83.5 170,-129.5 449,-129.5 449,-83.5 170,-83.5"/>
<text text-anchor="middle" x="237" y="-102.8" font-family="Times,serif" font-size="14.00" fill="#000000">dropout_2: Dropout</text>
<polyline fill="none" stroke="#000000" points="304,-83.5 304,-129.5 "/>
<text text-anchor="middle" x="333" y="-114.3" font-family="Times,serif" font-size="14.00" fill="#000000">input:</text>
<polyline fill="none" stroke="#000000" points="304,-106.5 362,-106.5 "/>
<text text-anchor="middle" x="333" y="-91.3" font-family="Times,serif" font-size="14.00" fill="#000000">output:</text>
<polyline fill="none" stroke="#000000" points="362,-83.5 362,-129.5 "/>
<text text-anchor="middle" x="405.5" y="-114.3" font-family="Times,serif" font-size="14.00" fill="#000000">(None, 160)</text>
<polyline fill="none" stroke="#000000" points="362,-106.5 449,-106.5 "/>
<text text-anchor="middle" x="405.5" y="-91.3" font-family="Times,serif" font-size="14.00" fill="#000000">(None, 160)</text>
</g>
<!-- 140654489238608&#45;&gt;140654489239112 -->
<g id="edge11" class="edge">
<title>140654489238608&#45;&gt;140654489239112</title>
<path fill="none" stroke="#000000" d="M309.5,-166.3799C309.5,-158.1745 309.5,-148.7679 309.5,-139.8786"/>
<polygon fill="#000000" stroke="#000000" points="313.0001,-139.784 309.5,-129.784 306.0001,-139.784 313.0001,-139.784"/>
</g>
<!-- 140654489239168 -->
<g id="node12" class="node">
<title>140654489239168</title>
<polygon fill="none" stroke="#000000" points="183.5,-.5 183.5,-46.5 435.5,-46.5 435.5,-.5 183.5,-.5"/>
<text text-anchor="middle" x="237" y="-19.8" font-family="Times,serif" font-size="14.00" fill="#000000">dense_2: Dense</text>
<polyline fill="none" stroke="#000000" points="290.5,-.5 290.5,-46.5 "/>
<text text-anchor="middle" x="319.5" y="-31.3" font-family="Times,serif" font-size="14.00" fill="#000000">input:</text>
<polyline fill="none" stroke="#000000" points="290.5,-23.5 348.5,-23.5 "/>
<text text-anchor="middle" x="319.5" y="-8.3" font-family="Times,serif" font-size="14.00" fill="#000000">output:</text>
<polyline fill="none" stroke="#000000" points="348.5,-.5 348.5,-46.5 "/>
<text text-anchor="middle" x="392" y="-31.3" font-family="Times,serif" font-size="14.00" fill="#000000">(None, 160)</text>
<polyline fill="none" stroke="#000000" points="348.5,-23.5 435.5,-23.5 "/>
<text text-anchor="middle" x="392" y="-8.3" font-family="Times,serif" font-size="14.00" fill="#000000">(None, 10)</text>
</g>
<!-- 140654489239112&#45;&gt;140654489239168 -->
<g id="edge12" class="edge">
<title>140654489239112&#45;&gt;140654489239168</title>
<path fill="none" stroke="#000000" d="M309.5,-83.3799C309.5,-75.1745 309.5,-65.7679 309.5,-56.8786"/>
<polygon fill="#000000" stroke="#000000" points="313.0001,-56.784 309.5,-46.784 306.0001,-56.784 313.0001,-56.784"/>
</g>
</g>
</svg>
