<?xml version="1.0" encoding="UTF-8" standalone="no"?>
<!DOCTYPE svg PUBLIC "-//W3C//DTD SVG 1.1//EN"
 "http://www.w3.org/Graphics/SVG/1.1/DTD/svg11.dtd">
<!-- Generated by graphviz version 2.40.1 (20161225.0304)
 -->
<!-- Title: G Pages: 1 -->
<svg width="601pt" height="848pt"
 viewBox="0.00 0.00 451.00 636.00" xmlns="http://www.w3.org/2000/svg" xmlns:xlink="http://www.w3.org/1999/xlink">
<g id="graph0" class="graph" transform="scale(1.3333 1.3333) rotate(0) translate(4 632)">
<title>G</title>
<polygon fill="#ffffff" stroke="transparent" points="-4,4 -4,-632 447,-632 447,4 -4,4"/>
<!-- 139818667469120 -->
<g id="node1" class="node">
<title>139818667469120</title>
<polygon fill="none" stroke="#000000" points="63,-581.5 63,-627.5 380,-627.5 380,-581.5 63,-581.5"/>
<text text-anchor="middle" x="134" y="-600.8" font-family="Times,serif" font-size="14.00" fill="#000000">inp_layer: InputLayer</text>
<polyline fill="none" stroke="#000000" points="205,-581.5 205,-627.5 "/>
<text text-anchor="middle" x="234" y="-612.3" font-family="Times,serif" font-size="14.00" fill="#000000">input:</text>
<polyline fill="none" stroke="#000000" points="205,-604.5 263,-604.5 "/>
<text text-anchor="middle" x="234" y="-589.3" font-family="Times,serif" font-size="14.00" fill="#000000">output:</text>
<polyline fill="none" stroke="#000000" points="263,-581.5 263,-627.5 "/>
<text text-anchor="middle" x="321.5" y="-612.3" font-family="Times,serif" font-size="14.00" fill="#000000">(None, 28, 28, 1)</text>
<polyline fill="none" stroke="#000000" points="263,-604.5 380,-604.5 "/>
<text text-anchor="middle" x="321.5" y="-589.3" font-family="Times,serif" font-size="14.00" fill="#000000">(None, 28, 28, 1)</text>
</g>
<!-- 139818667469232 -->
<g id="node2" class="node">
<title>139818667469232</title>
<polygon fill="none" stroke="#000000" points="75,-498.5 75,-544.5 368,-544.5 368,-498.5 75,-498.5"/>
<text text-anchor="middle" x="130" y="-517.8" font-family="Times,serif" font-size="14.00" fill="#000000">conv1: Conv2D</text>
<polyline fill="none" stroke="#000000" points="185,-498.5 185,-544.5 "/>
<text text-anchor="middle" x="214" y="-529.3" font-family="Times,serif" font-size="14.00" fill="#000000">input:</text>
<polyline fill="none" stroke="#000000" points="185,-521.5 243,-521.5 "/>
<text text-anchor="middle" x="214" y="-506.3" font-family="Times,serif" font-size="14.00" fill="#000000">output:</text>
<polyline fill="none" stroke="#000000" points="243,-498.5 243,-544.5 "/>
<text text-anchor="middle" x="305.5" y="-529.3" font-family="Times,serif" font-size="14.00" fill="#000000">(None, 28, 28, 1)</text>
<polyline fill="none" stroke="#000000" points="243,-521.5 368,-521.5 "/>
<text text-anchor="middle" x="305.5" y="-506.3" font-family="Times,serif" font-size="14.00" fill="#000000">(None, 26, 26, 32)</text>
</g>
<!-- 139818667469120&#45;&gt;139818667469232 -->
<g id="edge1" class="edge">
<title>139818667469120&#45;&gt;139818667469232</title>
<path fill="none" stroke="#000000" d="M221.5,-581.3799C221.5,-573.1745 221.5,-563.7679 221.5,-554.8786"/>
<polygon fill="#000000" stroke="#000000" points="225.0001,-554.784 221.5,-544.784 218.0001,-554.784 225.0001,-554.784"/>
</g>
<!-- 139818667469288 -->
<g id="node3" class="node">
<title>139818667469288</title>
<polygon fill="none" stroke="#000000" points="0,-415.5 0,-461.5 443,-461.5 443,-415.5 0,-415.5"/>
<text text-anchor="middle" x="130" y="-434.8" font-family="Times,serif" font-size="14.00" fill="#000000">average_pooling2d_1: AveragePooling2D</text>
<polyline fill="none" stroke="#000000" points="260,-415.5 260,-461.5 "/>
<text text-anchor="middle" x="289" y="-446.3" font-family="Times,serif" font-size="14.00" fill="#000000">input:</text>
<polyline fill="none" stroke="#000000" points="260,-438.5 318,-438.5 "/>
<text text-anchor="middle" x="289" y="-423.3" font-family="Times,serif" font-size="14.00" fill="#000000">output:</text>
<polyline fill="none" stroke="#000000" points="318,-415.5 318,-461.5 "/>
<text text-anchor="middle" x="380.5" y="-446.3" font-family="Times,serif" font-size="14.00" fill="#000000">(None, 26, 26, 32)</text>
<polyline fill="none" stroke="#000000" points="318,-438.5 443,-438.5 "/>
<text text-anchor="middle" x="380.5" y="-423.3" font-family="Times,serif" font-size="14.00" fill="#000000">(None, 13, 13, 32)</text>
</g>
<!-- 139818667469232&#45;&gt;139818667469288 -->
<g id="edge2" class="edge">
<title>139818667469232&#45;&gt;139818667469288</title>
<path fill="none" stroke="#000000" d="M221.5,-498.3799C221.5,-490.1745 221.5,-480.7679 221.5,-471.8786"/>
<polygon fill="#000000" stroke="#000000" points="225.0001,-471.784 221.5,-461.784 218.0001,-471.784 225.0001,-471.784"/>
</g>
<!-- 139818667469792 -->
<g id="node4" class="node">
<title>139818667469792</title>
<polygon fill="none" stroke="#000000" points="75,-332.5 75,-378.5 368,-378.5 368,-332.5 75,-332.5"/>
<text text-anchor="middle" x="130" y="-351.8" font-family="Times,serif" font-size="14.00" fill="#000000">conv2: Conv2D</text>
<polyline fill="none" stroke="#000000" points="185,-332.5 185,-378.5 "/>
<text text-anchor="middle" x="214" y="-363.3" font-family="Times,serif" font-size="14.00" fill="#000000">input:</text>
<polyline fill="none" stroke="#000000" points="185,-355.5 243,-355.5 "/>
<text text-anchor="middle" x="214" y="-340.3" font-family="Times,serif" font-size="14.00" fill="#000000">output:</text>
<polyline fill="none" stroke="#000000" points="243,-332.5 243,-378.5 "/>
<text text-anchor="middle" x="305.5" y="-363.3" font-family="Times,serif" font-size="14.00" fill="#000000">(None, 13, 13, 32)</text>
<polyline fill="none" stroke="#000000" points="243,-355.5 368,-355.5 "/>
<text text-anchor="middle" x="305.5" y="-340.3" font-family="Times,serif" font-size="14.00" fill="#000000">(None, 6, 6, 64)</text>
</g>
<!-- 139818667469288&#45;&gt;139818667469792 -->
<g id="edge3" class="edge">
<title>139818667469288&#45;&gt;139818667469792</title>
<path fill="none" stroke="#000000" d="M221.5,-415.3799C221.5,-407.1745 221.5,-397.7679 221.5,-388.8786"/>
<polygon fill="#000000" stroke="#000000" points="225.0001,-388.784 221.5,-378.784 218.0001,-388.784 225.0001,-388.784"/>
</g>
<!-- 139818667469736 -->
<g id="node5" class="node">
<title>139818667469736</title>
<polygon fill="none" stroke="#000000" points="81,-249.5 81,-295.5 362,-295.5 362,-249.5 81,-249.5"/>
<text text-anchor="middle" x="137.5" y="-268.8" font-family="Times,serif" font-size="14.00" fill="#000000">flatten_1: Flatten</text>
<polyline fill="none" stroke="#000000" points="194,-249.5 194,-295.5 "/>
<text text-anchor="middle" x="223" y="-280.3" font-family="Times,serif" font-size="14.00" fill="#000000">input:</text>
<polyline fill="none" stroke="#000000" points="194,-272.5 252,-272.5 "/>
<text text-anchor="middle" x="223" y="-257.3" font-family="Times,serif" font-size="14.00" fill="#000000">output:</text>
<polyline fill="none" stroke="#000000" points="252,-249.5 252,-295.5 "/>
<text text-anchor="middle" x="307" y="-280.3" font-family="Times,serif" font-size="14.00" fill="#000000">(None, 6, 6, 64)</text>
<polyline fill="none" stroke="#000000" points="252,-272.5 362,-272.5 "/>
<text text-anchor="middle" x="307" y="-257.3" font-family="Times,serif" font-size="14.00" fill="#000000">(None, 2304)</text>
</g>
<!-- 139818667469792&#45;&gt;139818667469736 -->
<g id="edge4" class="edge">
<title>139818667469792&#45;&gt;139818667469736</title>
<path fill="none" stroke="#000000" d="M221.5,-332.3799C221.5,-324.1745 221.5,-314.7679 221.5,-305.8786"/>
<polygon fill="#000000" stroke="#000000" points="225.0001,-305.784 221.5,-295.784 218.0001,-305.784 225.0001,-305.784"/>
</g>
<!-- 139818667470408 -->
<g id="node6" class="node">
<title>139818667470408</title>
<polygon fill="none" stroke="#000000" points="91.5,-166.5 91.5,-212.5 351.5,-212.5 351.5,-166.5 91.5,-166.5"/>
<text text-anchor="middle" x="145" y="-185.8" font-family="Times,serif" font-size="14.00" fill="#000000">dense_1: Dense</text>
<polyline fill="none" stroke="#000000" points="198.5,-166.5 198.5,-212.5 "/>
<text text-anchor="middle" x="227.5" y="-197.3" font-family="Times,serif" font-size="14.00" fill="#000000">input:</text>
<polyline fill="none" stroke="#000000" points="198.5,-189.5 256.5,-189.5 "/>
<text text-anchor="middle" x="227.5" y="-174.3" font-family="Times,serif" font-size="14.00" fill="#000000">output:</text>
<polyline fill="none" stroke="#000000" points="256.5,-166.5 256.5,-212.5 "/>
<text text-anchor="middle" x="304" y="-197.3" font-family="Times,serif" font-size="14.00" fill="#000000">(None, 2304)</text>
<polyline fill="none" stroke="#000000" points="256.5,-189.5 351.5,-189.5 "/>
<text text-anchor="middle" x="304" y="-174.3" font-family="Times,serif" font-size="14.00" fill="#000000">(None, 100)</text>
</g>
<!-- 139818667469736&#45;&gt;139818667470408 -->
<g id="edge5" class="edge">
<title>139818667469736&#45;&gt;139818667470408</title>
<path fill="none" stroke="#000000" d="M221.5,-249.3799C221.5,-241.1745 221.5,-231.7679 221.5,-222.8786"/>
<polygon fill="#000000" stroke="#000000" points="225.0001,-222.784 221.5,-212.784 218.0001,-222.784 225.0001,-222.784"/>
</g>
<!-- 139818665005240 -->
<g id="node7" class="node">
<title>139818665005240</title>
<polygon fill="none" stroke="#000000" points="95.5,-83.5 95.5,-129.5 347.5,-129.5 347.5,-83.5 95.5,-83.5"/>
<text text-anchor="middle" x="149" y="-102.8" font-family="Times,serif" font-size="14.00" fill="#000000">dense_2: Dense</text>
<polyline fill="none" stroke="#000000" points="202.5,-83.5 202.5,-129.5 "/>
<text text-anchor="middle" x="231.5" y="-114.3" font-family="Times,serif" font-size="14.00" fill="#000000">input:</text>
<polyline fill="none" stroke="#000000" points="202.5,-106.5 260.5,-106.5 "/>
<text text-anchor="middle" x="231.5" y="-91.3" font-family="Times,serif" font-size="14.00" fill="#000000">output:</text>
<polyline fill="none" stroke="#000000" points="260.5,-83.5 260.5,-129.5 "/>
<text text-anchor="middle" x="304" y="-114.3" font-family="Times,serif" font-size="14.00" fill="#000000">(None, 100)</text>
<polyline fill="none" stroke="#000000" points="260.5,-106.5 347.5,-106.5 "/>
<text text-anchor="middle" x="304" y="-91.3" font-family="Times,serif" font-size="14.00" fill="#000000">(None, 10)</text>
</g>
<!-- 139818667470408&#45;&gt;139818665005240 -->
<g id="edge6" class="edge">
<title>139818667470408&#45;&gt;139818665005240</title>
<path fill="none" stroke="#000000" d="M221.5,-166.3799C221.5,-158.1745 221.5,-148.7679 221.5,-139.8786"/>
<polygon fill="#000000" stroke="#000000" points="225.0001,-139.784 221.5,-129.784 218.0001,-139.784 225.0001,-139.784"/>
</g>
<!-- 139818665005576 -->
<g id="node8" class="node">
<title>139818665005576</title>
<polygon fill="none" stroke="#000000" points="84,-.5 84,-46.5 359,-46.5 359,-.5 84,-.5"/>
<text text-anchor="middle" x="152.5" y="-19.8" font-family="Times,serif" font-size="14.00" fill="#000000">out_layer: Activation</text>
<polyline fill="none" stroke="#000000" points="221,-.5 221,-46.5 "/>
<text text-anchor="middle" x="250" y="-31.3" font-family="Times,serif" font-size="14.00" fill="#000000">input:</text>
<polyline fill="none" stroke="#000000" points="221,-23.5 279,-23.5 "/>
<text text-anchor="middle" x="250" y="-8.3" font-family="Times,serif" font-size="14.00" fill="#000000">output:</text>
<polyline fill="none" stroke="#000000" points="279,-.5 279,-46.5 "/>
<text text-anchor="middle" x="319" y="-31.3" font-family="Times,serif" font-size="14.00" fill="#000000">(None, 10)</text>
<polyline fill="none" stroke="#000000" points="279,-23.5 359,-23.5 "/>
<text text-anchor="middle" x="319" y="-8.3" font-family="Times,serif" font-size="14.00" fill="#000000">(None, 10)</text>
</g>
<!-- 139818665005240&#45;&gt;139818665005576 -->
<g id="edge7" class="edge">
<title>139818665005240&#45;&gt;139818665005576</title>
<path fill="none" stroke="#000000" d="M221.5,-83.3799C221.5,-75.1745 221.5,-65.7679 221.5,-56.8786"/>
<polygon fill="#000000" stroke="#000000" points="225.0001,-56.784 221.5,-46.784 218.0001,-56.784 225.0001,-56.784"/>
</g>
</g>
</svg>
